# xmcd
#
# Track frame offsets: 
#        150
#        13783
#        28751
#        47644
#        64721
#        83616
#        99400
#        115370
#        132286
#        152008
#        168478
#        181964
#
# Disc length: 2623 seconds
#
# Revision: 0
# Processed by: cddbd v1.5.2PL0 Copyright (c) Steve Scherf et al.
# Submitted via: ExactAudioCopy v0.95b4
#
DISCID=940a3d0c
DTITLE=Arcana - Al Olvido
DYEAR=2005
DGENRE=Alt. Rock
TTITLE0=Gorgojo
TTITLE1=Revoluciones
TTITLE2=Gato Con Insomnio
TTITLE3=Al Olvido
TTITLE4=Jaque Mate
TTITLE5=Un Sueño
TTITLE6=Bala Ultravioleta
TTITLE7=Vidrio
TTITLE8=Los Heraldos Negros
TTITLE9=En El Limbo
TTITLE10=Angel De La Luz
TTITLE11=Suelta Ese Cuchillo Ginette
EXTD=
EXTT0=
EXTT1=
EXTT2=
EXTT3=
EXTT4=
EXTT5=
EXTT6=
EXTT7=
EXTT8=
EXTT9=
EXTT10=
EXTT11=
PLAYORDER=
